<!--
  MSIX app-list/taskbar icon source (Square44x44 / StoreLogo): solid cut
  in white on a full-bleed rounded square — subtle Win11-style corner,
  not the macOS squircle, so Windows' own tile treatment doesn't
  double-plate it. Solid cut because these render at 44/50px.
  Generated by scripts/gen-marks.py - edit the constants there, not this file.
-->
<svg xmlns="http://www.w3.org/2000/svg" viewBox="0 0 1024 1024">
<defs><linearGradient id="bg" x1="0" y1="0" x2="0" y2="1"><stop offset="0" stop-color="#2B2B2B"/><stop offset="1" stop-color="#101010"/></linearGradient></defs>
<rect x="0" y="0" width="1024" height="1024" rx="80" fill="url(#bg)"/>
<g transform="translate(192 262) scale(0.625)">
<path fill-rule="evenodd" fill="#FFFFFF" d="M 140 0 H 884 A 140 140 0 0 1 1024 140 V 660 A 140 140 0 0 1 884 800 H 140 A 140 140 0 0 1 0 660 V 140 A 140 140 0 0 1 140 0 Z M 140 80 H 884 A 60 60 0 0 1 944 140 V 660 A 60 60 0 0 1 884 720 H 436 C 450 672 456 618 456 560 C 456 480 450 424 434 382 C 422 350 402 330 378 324 C 392 344 400 366 400 390 C 396 458 356 532 298 588 C 248 636 190 664 150 676 C 124 684 98 672 80 655 V 140 A 60 60 0 0 1 140 80 Z"/>
</g>
</svg>
