<!--
  Tight-cropped variant of docs/assets/favicon.svg used as the macOS
  menubar template image. The source SVG places the glyph inside a
  1024x1024 viewBox with ~50% padding, which makes the menubar icon
  look thin next to neighbouring SF Symbols. This file uses a viewBox
  sized to the path's actual bounding box (~245,290 → 780,720) so the
  glyph fills the image and matches the visual weight of Spotlight /
  Control Center.
-->
<svg xmlns="http://www.w3.org/2000/svg" viewBox="245 237 535 535" fill="#000000">
<path d="
M289.305664,450.000000
C289.322937,489.999817 289.326416,529.499634 289.380524,568.999390
C289.384735,572.075317 289.106506,574.735474 286.670288,577.157715
C273.061615,590.688049 262.376282,606.284363 254.455109,623.767151
C254.108307,624.532532 253.852386,625.333740 252.824677,625.481689
C251.191574,625.078491 251.665161,623.735840 251.665344,622.659973
C251.679642,536.826965 251.516357,450.993256 251.822311,365.161255
C251.947586,330.019012 281.569214,299.444122 316.380127,297.690582
C347.019104,296.147217 377.689941,297.142975 408.344727,297.097809
C505.677704,296.954407 603.010986,297.074921 700.344177,297.022339
C727.179688,297.007843 748.483521,307.553345 763.490906,329.928162
C771.404358,341.726379 774.580872,354.950653 774.555786,369.207123
C774.405884,454.368103 774.429016,539.529419 774.477173,624.690674
C774.481079,631.679688 774.823181,638.646301 774.455750,645.658447
C772.496643,683.048584 742.233276,712.232422 704.815674,712.251221
C576.482483,712.315613 448.149231,712.266663 319.816040,712.340149
C311.891754,712.344666 304.206390,711.328674 296.707672,708.890625
C274.149841,701.556335 262.135498,681.042053 266.084869,657.095337
C270.837463,628.278259 286.492004,605.789246 306.968170,586.072266
C327.326782,566.468445 352.052887,554.375061 378.251648,544.846008
C398.341766,537.538696 418.055450,529.488586 435.152557,516.221558
C449.609344,505.003326 461.011871,491.306213 469.037384,474.822998
C469.734650,473.390839 470.021606,471.585205 472.074615,470.731750
C474.025909,472.703125 474.093903,475.422119 474.608704,477.893860
C480.310394,505.270508 479.504913,532.206604 468.238495,558.177795
C458.890656,579.726318 443.670044,596.388733 424.244598,609.397156
C410.692261,618.472656 395.754303,625.386780 383.195862,636.022400
C373.748871,644.022888 366.272186,653.442322 361.319641,664.806030
C360.196014,667.384155 359.031372,669.988831 359.101776,673.022095
C361.288239,675.084229 364.053986,674.578064 366.625092,674.578918
C465.791473,674.611328 564.957886,674.647034 664.124268,674.575195
C678.443054,674.564819 692.825867,675.714050 707.072449,673.960876
C724.923584,671.764160 736.732239,657.694763 736.735596,639.539734
C736.744690,589.873169 736.728088,540.206543 736.729553,490.539948
C736.730713,450.373322 736.780396,410.206696 736.732971,370.040131
C736.713379,353.460815 726.398132,340.258209 710.441223,335.931824
C707.321167,335.085907 704.166870,335.130249 701.018250,335.129456
C575.351868,335.098633 449.685455,335.070770 324.019073,335.118866
C304.126770,335.126495 289.362885,350.095734 289.324615,370.004486
C289.273682,396.502899 289.307343,423.001495 289.305664,450.000000
z"/>
</svg>
