<svg version="1.1" id="Layer_1" xmlns="http://www.w3.org/2000/svg" xmlns:xlink="http://www.w3.org/1999/xlink" x="0px" y="0px"
	 width="100%" viewBox="0 0 1024 1024" enable-background="new 0 0 1024 1024" xml:space="preserve">
<style>
	path { fill: #000000; }
	@media (prefers-color-scheme: dark) {
		path { fill: #FFFFFF; }
	}
</style>
<path opacity="1.000000" stroke="none"
	d="
M767.297852,436.000061 
	C767.301453,489.662109 766.826355,542.830261 767.505188,595.983704 
	C767.857788,623.590454 747.846924,649.024292 714.729065,649.018799 
	C656.067627,649.009094 597.406189,649.002930 538.744751,648.994873 
	C538.578125,648.994873 538.411499,648.989746 538.244873,648.988342 
	C529.315186,648.913574 529.312256,648.913574 529.317383,657.637146 
	C529.320862,663.636597 529.440186,669.638428 529.306946,675.634705 
	C529.209473,680.021484 530.842896,681.815796 535.492920,681.782227 
	C559.656189,681.607788 583.821716,681.641174 607.985901,681.738159 
	C620.284729,681.787476 627.737854,692.471008 622.964661,703.143127 
	C620.017090,709.733459 614.281189,712.046143 607.490540,712.086609 
	C592.658936,712.174805 577.826660,712.145874 562.994629,712.148193 
	C514.832153,712.155640 466.669708,712.173889 418.507233,712.144043 
	C407.897888,712.137512 401.108795,705.673584 401.479004,696.154480 
	C401.815521,687.500610 407.989197,681.753662 417.337128,681.726013 
	C441.168152,681.655457 464.999573,681.707336 488.830811,681.700195 
	C495.730896,681.698120 496.733856,680.874329 496.504486,674.018005 
	C496.281677,667.358032 495.801636,660.721069 496.446899,654.053650 
	C496.878326,649.596069 494.032440,648.972412 490.382812,648.985291 
	C468.051697,649.063904 445.720245,649.030334 423.388885,649.033203 
	C378.226166,649.038940 333.063477,649.043030 287.900757,649.049988 
	C268.373108,649.052979 258.998169,639.967285 258.670837,620.481201 
	C258.129669,588.262329 273.678925,565.025818 299.743805,547.899536 
	C314.272278,538.353394 330.761993,533.447205 347.281067,528.718018 
	C367.646667,522.887573 386.834717,514.778198 403.012817,500.590790 
	C418.929138,486.632965 428.835968,469.041138 434.841797,449.004608 
	C435.749695,445.975677 436.678680,442.952911 437.626282,439.936249 
	C437.768311,439.484131 438.066956,439.081207 438.290924,438.659851 
	C440.786926,440.263550 441.025879,442.577393 441.700104,444.517700 
	C454.067719,480.109222 452.486969,514.326782 430.685211,546.111023 
	C417.867126,564.798218 399.215546,575.936768 378.608368,584.201843 
	C367.482544,588.664062 356.157684,592.649353 345.553986,598.351379 
	C338.878998,601.940735 333.001129,606.520142 327.767273,611.953979 
	C326.414001,613.358887 324.807220,614.682312 324.764374,616.899109 
	C325.796814,618.348450 327.263550,618.446411 328.789062,618.448914 
	C370.772980,618.516541 412.756836,618.638245 454.740784,618.652527 
	C541.066589,618.681885 627.392395,618.647095 713.718201,618.660034 
	C723.541382,618.661499 731.232483,615.209778 735.502258,605.821106 
	C736.713501,603.157532 736.914795,600.365173 736.915405,597.520569 
	C736.933594,509.028320 736.978394,420.536072 736.935364,332.043823 
	C736.928833,318.610535 728.408691,310.995880 713.907471,310.997406 
	C629.414856,311.006378 544.922302,311.025116 460.429718,311.031494 
	C410.934113,311.035217 361.438538,311.002014 311.942932,311.028473 
	C296.421844,311.036774 288.359161,319.256348 288.356995,334.948303 
	C288.348083,399.276001 288.318268,463.603760 288.436646,527.931274 
	C288.444733,532.338257 287.320129,535.197998 283.497345,537.821716 
	C275.662079,543.199280 268.610687,549.591919 262.762756,557.197388 
	C261.805756,558.442078 261.223633,560.266724 259.118408,560.297852 
	C257.282013,558.946411 257.984955,556.950623 257.985291,555.235840 
	C257.999207,482.075897 258.012329,408.915894 258.126709,335.756042 
	C258.171661,307.012238 274.533325,286.129578 300.573822,281.348297 
	C303.500183,280.811005 306.538452,280.699921 309.524872,280.699219 
	C445.679443,280.666718 581.833984,280.629608 717.988586,280.700287 
	C744.341980,280.713989 767.131958,303.565552 767.253601,330.017029 
	C767.415222,365.177368 767.296143,400.338959 767.297852,436.000061 
z"/>
</svg>